# xmcd
#
# Track frame offsets:
#	150
#	17819
#	34897
#	52958
#	69928
#	85689
#	102659
#	121990
#	140853
#	157768
#	175122
#
# Disc length: 2569 seconds
#
# Revision: 0
# Processed by: cddbd v1.5.2PL0 Copyright (c) Steve Scherf et al.
# Submitted via: EasyCDDAExtractor 12.0.4.1
#
DISCID=8b0a070b
DTITLE=EROS RAMAZOTTI - ALAS Y RADICES
DYEAR=2009
DGENRE=Other
TTITLE0=Apuntes Y Notas (Appunti E Note)
TTITLE1=El Camino II Cammino)
TTITLE2=Dimelo A Mi (Parla Con Me)
TTITLE3=El Horizonte (L' Orizzonte)
TTITLE4=Afectos Pesonales (Affecti Personali)
TTITLE5=Contra El Viento (Con Trovento)
TTITLE6=Alas Y Raices (Ali E Radici)
TTITLE7=Flor Inesperada (Bu Caneve)
TTITLE8=Nosotros Incluidos (Nessuno Escluso)
TTITLE9=No Prodemos Cerrar Los Ojos (Non Possiamo Chiudere Gli Occhi)
TTITLE10=Cosmo Un Tesoro (Come Gioielli)
EXTD=
EXTT0=
EXTT1=
EXTT2=
EXTT3=
EXTT4=
EXTT5=
EXTT6=
EXTT7=
EXTT8=
EXTT9=
EXTT10=
PLAYORDER=
